<svg width="100" height="28" viewBox="0 0 100 28" fill="none" xmlns="http://www.w3.org/2000/svg">
<path fill-rule="evenodd" clip-rule="evenodd" d="M99.1226 7.34334V0.913818L95.4752 0.916818V7.34932L95.5015 20.0646V26.7847H99.1488V20.0646L99.1226 7.34334ZM84.2555 19.9275L84.2233 3.43285L74.2018 26.848H73.3251L63.251 3.4568L63.2802 18.6187L63.2948 26.848H62.4502V18.5229L62.4298 7.23905L62.4152 0.98621H65.9222L75.2218 22.419L84.4046 0.950277H87.8765V7.20312L87.9029 19.9244V26.8121H84.2555V19.9275ZM38.5875 17.4207L47.8811 17.4028L49.7838 22.1343C49.7838 22.1343 50.3478 23.5358 51.6863 26.8748H55.6493L44.8709 1.02205H44.1345L33.733 26.9138H35.0657L38.5875 17.4207ZM43.1262 5.69671L47.5655 16.5404L38.8329 16.5583L43.1262 5.69671ZM27.055 1.06079V7.4933L27.0871 20.2266L27.1018 26.9466H23.4545L23.4428 20.2266L23.4193 7.50528V1.07577L27.055 1.06079ZM18.1587 26.0875V26.95L0.588193 26.9859V20.3378L0.56189 7.61644V1.11206H4.20925L4.25601 26.1203L18.1587 26.0875Z" fill="#292930"/>
</svg>
